<?xml version="1.0" encoding="UTF-8"?>
<svg id="Capa_1" data-name="Capa 1" xmlns="http://www.w3.org/2000/svg" viewBox="0 0 292.78 279.68">
  <defs>
    <style>
      .cls-1 {
        stroke-linecap: round;
      }

      .cls-1, .cls-2 {
        fill: none;
        stroke: #fff;
        stroke-miterlimit: 10;
        stroke-width: 1.52px;
      }

      .cls-3 {
        fill: #1d1d1b;
      }
    </style>
  </defs>
  <path class="cls-3" d="M40.17,140.55c0-68.34,53.11-122.51,118.62-122.51,33.99,0,65.86,14.52,87.45,38.59l-14.16,11.68c-18.77-20.54-45.32-32.22-73.29-32.22-55.59,0-99.14,45.32-99.14,104.45s41.43,103.04,99.85,103.04c29.74,0,55.59-11.68,74.71-31.51l.06-71.98h18.36v76.58c-23.01,28.68-57.01,44.97-93.83,44.97-66.92,0-118.62-53.82-118.62-121.09Z"/>
  <g>
    <g>
      <path class="cls-3" d="M125.91,135.84c35.86,32.73,50.22,32.2,94.26,4.55-41.17-31.77-55.41-33.68-94.26-4.55Z"/>
      <path class="cls-3" d="M177.59,227.28c45.53-16.86,51.64-29.87,47.25-81.69-47.11,22.03-55.33,33.81-47.25,81.69Z"/>
      <path class="cls-3" d="M177.59,52.41c45.53,16.86,51.64,29.87,47.25,81.69-47.11-22.03-55.33-33.81-47.25-81.69Z"/>
    </g>
    <g>
      <g>
        <line class="cls-2" x1="223.3" y1="140.26" x2="147.43" y2="139.07"/>
        <circle class="cls-2" cx="144.51" cy="138.77" r="3.18"/>
      </g>
      <g>
        <line class="cls-1" x1="212.68" y1="140.1" x2="178.68" y2="126.31"/>
        <circle class="cls-1" cx="175.45" cy="125.5" r="3.18"/>
      </g>
      <g>
        <line class="cls-1" x1="192.5" y1="139.78" x2="167.99" y2="148.91"/>
        <circle class="cls-2" cx="165.11" cy="150.58" r="3.18"/>
      </g>
      <g>
        <line class="cls-1" x1="170.8" y1="139.44" x2="158.81" y2="130.46"/>
        <circle class="cls-1" cx="156.09" cy="128.53" r="3.18"/>
      </g>
    </g>
    <g>
      <g>
        <line class="cls-2" x1="225.96" y1="135.94" x2="187.08" y2="70.78"/>
        <circle class="cls-2" cx="185.8" cy="68.14" r="3.18"/>
      </g>
      <g>
        <line class="cls-1" x1="220.52" y1="126.81" x2="214.36" y2="90.65"/>
        <circle class="cls-1" cx="213.36" cy="87.47" r="3.18"/>
      </g>
      <g>
        <line class="cls-1" x1="210.18" y1="109.48" x2="189.53" y2="93.44"/>
        <circle class="cls-2" cx="186.59" cy="91.87" r="3.18"/>
      </g>
      <g>
        <line class="cls-1" x1="199.06" y1="90.85" x2="200.39" y2="75.93"/>
        <circle class="cls-1" cx="200.6" cy="72.61" r="3.18"/>
      </g>
    </g>
    <g>
      <g>
        <line class="cls-2" x1="226.03" y1="143.48" x2="190.23" y2="210.38"/>
        <circle class="cls-2" cx="188.63" cy="212.84" r="3.18"/>
      </g>
      <g>
        <line class="cls-1" x1="221.02" y1="152.84" x2="193.2" y2="176.76"/>
        <circle class="cls-1" cx="190.99" cy="179.26" r="3.18"/>
      </g>
      <g>
        <line class="cls-1" x1="211.5" y1="170.64" x2="208.39" y2="196.6"/>
        <circle class="cls-2" cx="208.56" cy="199.94" r="3.18"/>
      </g>
      <g>
        <line class="cls-1" x1="201.26" y1="189.77" x2="187.79" y2="196.32"/>
        <circle class="cls-1" cx="184.83" cy="197.85" r="3.18"/>
      </g>
    </g>
  </g>
</svg>