<?xml version="1.0" encoding="UTF-8"?>
<svg id="Capa_1" data-name="Capa 1" xmlns="http://www.w3.org/2000/svg" viewBox="0 0 292.78 279.68">
  <defs>
    <style>
      .cls-1 {
        stroke-linecap: round;
      }

      .cls-1, .cls-2 {
        fill: none;
        stroke: #fff;
        stroke-miterlimit: 10;
        stroke-width: .92px;
      }

      .cls-3 {
        fill: #1d1d1b;
      }
    </style>
  </defs>
  <g>
    <path class="cls-3" d="M14.98,230.22c0-17.18,13.35-30.8,29.82-30.8,8.54,0,16.55,3.65,21.98,9.7l-3.56,2.94c-4.72-5.16-11.39-8.1-18.42-8.1-13.97,0-24.92,11.39-24.92,26.26s10.41,25.9,25.1,25.9c7.48,0,13.97-2.94,18.78-7.92v-15.58h-19.58v-4.27h24.21v21c-5.79,7.21-14.33,11.3-23.59,11.3-16.82,0-29.82-13.53-29.82-30.44Z"/>
    <path class="cls-3" d="M83.06,200.23h13.44c11.93,0,20.29,7.03,20.29,17.09,0,8.37-5.79,14.69-14.33,16.47l17.53,26.08h-5.52l-17.18-25.46h-9.61v25.46h-4.63v-59.63ZM96.5,230.14c9.35,0,15.67-4.98,15.67-12.82s-6.32-12.82-15.67-12.82h-8.81v25.63h8.81Z"/>
    <path class="cls-3" d="M125.78,230.05c0-17,13.35-30.62,29.82-30.62s29.82,13.53,29.82,30.62-13.26,30.62-29.82,30.62-29.82-13.71-29.82-30.62ZM180.52,230.05c0-14.78-10.95-26.08-24.92-26.08s-24.92,11.3-24.92,26.08,10.95,26.08,24.92,26.08,24.92-11.3,24.92-26.08Z"/>
    <path class="cls-3" d="M190.75,200.23h4.72l17.8,50.38,17.89-50.38h4.72l-21.81,61.41h-1.51l-21.81-61.41Z"/>
    <path class="cls-3" d="M247.45,200.23h29.91v4.27h-25.28v22.34h19.49v4.27h-19.49v24.48h25.72v4.27h-30.35v-59.63Z"/>
  </g>
  <g>
    <path class="cls-3" d="M82.16,92.11c0-41.32,32.11-74.07,71.72-74.07,20.55,0,39.82,8.78,52.88,23.33l-8.56,7.06c-11.35-12.42-27.4-19.48-44.31-19.48-33.61,0-59.94,27.4-59.94,63.15s25.05,62.3,60.37,62.3c17.98,0,33.61-7.06,45.17-19.05l.03-43.52h11.1v46.3c-13.91,17.34-34.47,27.19-56.73,27.19-40.46,0-71.72-32.54-71.72-73.22Z"/>
    <g>
      <g>
        <path class="cls-3" d="M134,89.26c21.68,19.79,30.36,19.47,56.99,2.75-24.89-19.21-33.5-20.36-56.99-2.75Z"/>
        <path class="cls-3" d="M165.26,144.55c27.53-10.2,31.22-18.06,28.57-49.39-28.48,13.32-33.45,20.44-28.57,49.39Z"/>
        <path class="cls-3" d="M165.26,38.82c27.53,10.2,31.22,18.06,28.57,49.39-28.48-13.32-33.45-20.44-28.57-49.39Z"/>
      </g>
      <g>
        <g>
          <line class="cls-2" x1="192.89" y1="91.94" x2="147.02" y2="91.22"/>
          <circle class="cls-2" cx="145.25" cy="91.04" r="1.92"/>
        </g>
        <g>
          <line class="cls-1" x1="186.47" y1="91.84" x2="165.91" y2="83.5"/>
          <circle class="cls-1" cx="163.96" cy="83.01" r="1.92"/>
        </g>
        <g>
          <line class="cls-1" x1="174.27" y1="91.65" x2="159.45" y2="97.16"/>
          <circle class="cls-2" cx="157.71" cy="98.17" r="1.92"/>
        </g>
        <g>
          <line class="cls-1" x1="161.15" y1="91.44" x2="153.9" y2="86.01"/>
          <circle class="cls-1" cx="152.26" cy="84.84" r="1.92"/>
        </g>
      </g>
      <g>
        <g>
          <line class="cls-2" x1="194.5" y1="89.32" x2="170.99" y2="49.93"/>
          <circle class="cls-2" cx="170.22" cy="48.33" r="1.92"/>
        </g>
        <g>
          <line class="cls-1" x1="191.21" y1="83.81" x2="187.49" y2="61.94"/>
          <circle class="cls-1" cx="186.88" cy="60.02" r="1.92"/>
        </g>
        <g>
          <line class="cls-1" x1="184.95" y1="73.33" x2="172.47" y2="63.63"/>
          <circle class="cls-2" cx="170.69" cy="62.68" r="1.92"/>
        </g>
        <g>
          <line class="cls-1" x1="178.23" y1="62.06" x2="179.04" y2="53.04"/>
          <circle class="cls-1" cx="179.17" cy="51.03" r="1.92"/>
        </g>
      </g>
      <g>
        <g>
          <line class="cls-2" x1="194.54" y1="93.88" x2="172.9" y2="134.33"/>
          <circle class="cls-2" cx="171.93" cy="135.82" r="1.92"/>
        </g>
        <g>
          <line class="cls-1" x1="191.51" y1="99.54" x2="174.69" y2="114"/>
          <circle class="cls-1" cx="173.36" cy="115.52" r="1.92"/>
        </g>
        <g>
          <line class="cls-1" x1="185.75" y1="110.3" x2="183.88" y2="126"/>
          <circle class="cls-2" cx="183.98" cy="128.02" r="1.92"/>
        </g>
        <g>
          <line class="cls-1" x1="179.57" y1="121.87" x2="171.42" y2="125.83"/>
          <circle class="cls-1" cx="169.63" cy="126.76" r="1.92"/>
        </g>
      </g>
    </g>
  </g>
</svg>