<svg role="img" viewBox="0 0 24 24" xmlns="http://www.w3.org/2000/svg">
  <title>Celery</title>
  <path d="M7.408 0c-.657 0-1.189.532-1.189 1.189v2.973c0 .657.532 1.189 1.189 1.189h.297c.657 0 1.189-.532 1.189-1.189V1.189C8.894.532 8.362 0 7.705 0zm8.887 0c-.657 0-1.189.532-1.189 1.189v2.973c0 .657.532 1.189 1.189 1.189h.297c.657 0 1.189-.532 1.189-1.189V1.189C17.781.532 17.249 0 16.592 0zm-4.444 2.378c-.657 0-1.189.532-1.189 1.189v2.973c0 .657.532 1.189 1.189 1.189h.297c.657 0 1.189-.532 1.189-1.189V3.567c0-.657-.532-1.189-1.189-1.189zm8.888 2.378c-.657 0-1.189.532-1.189 1.189v2.973c0 .657.532 1.189 1.189 1.189h.297c.657 0 1.189-.532 1.189-1.189V5.945c0-.657-.532-1.189-1.189-1.189z"/>
</svg>
